<svg width="693" height="1007" viewBox="0 0 693 1007" fill="none" xmlns="http://www.w3.org/2000/svg">
<path d="M69.7017 446.93L139.941 400.104L210.18 821.538L176.901 790.688L69.7017 446.93Z" fill="black" stroke="black" stroke-width="7.34124" stroke-linecap="round" stroke-linejoin="round"/>
<path d="M139.941 400.104C168.734 383.424 197.525 366.746 226.317 350.068L247.602 711.923C235.128 748.461 222.653 785.002 210.18 821.538" fill="white"/>
<path d="M139.941 400.104C168.734 383.424 197.525 366.746 226.317 350.068L247.602 711.923C235.128 748.461 222.653 785.002 210.18 821.538" stroke="black" stroke-width="7.34124" stroke-linecap="round" stroke-linejoin="round"/>
<path d="M4 191.608C77.9757 134.65 151.951 77.6918 227.831 43.3983C303.712 9.10472 381.494 -2.52431 443.447 7.43016C505.4 17.3846 551.518 48.9183 585.363 81.9825C619.208 115.047 640.78 149.637 658.661 196.498C676.542 243.358 690.732 302.483 688.617 363.628C686.501 424.774 668.083 487.937 637.953 551.432C607.824 614.926 565.987 678.749 537.368 710.956C508.75 743.164 493.349 743.753 505.201 711.446C517.052 679.139 556.159 613.937 578.473 543.495C600.786 473.053 606.304 397.372 594.874 327.997C583.444 258.622 555.063 195.554 506.974 154.558C458.885 113.561 391.088 94.6412 324.47 94.2462C257.852 93.8512 192.42 111.983 126.984 130.116" fill="white"/>
<path d="M4 191.608C77.9757 134.65 151.951 77.6918 227.831 43.3983C303.712 9.10472 381.494 -2.52431 443.447 7.43016C505.4 17.3846 551.518 48.9183 585.363 81.9825C619.208 115.047 640.78 149.637 658.661 196.498C676.542 243.358 690.732 302.483 688.617 363.628C686.501 424.774 668.083 487.937 637.953 551.432C607.824 614.926 565.987 678.749 537.368 710.956C508.75 743.164 493.349 743.753 505.201 711.446C517.052 679.139 556.159 613.937 578.473 543.495C600.786 473.053 606.304 397.372 594.874 327.997C583.444 258.622 555.063 195.554 506.974 154.558C458.885 113.561 391.088 94.6412 324.47 94.2462C257.852 93.8512 192.42 111.983 126.984 130.116" stroke="black" stroke-width="7.34124"/>
<path d="M4 246.361V191.608C77.3172 136.423 150.633 81.2385 240.904 58.3761C331.174 35.5137 438.387 44.9736 518.8 106.075C599.213 167.176 652.819 279.906 652.029 396.978C651.239 514.05 596.055 635.454 524.512 737.349C452.969 839.243 365.067 921.626 277.166 1004.01C394.237 849.886 511.305 695.766 560.381 553.663C609.458 411.561 590.538 281.487 535.334 205.149C480.131 128.81 388.645 106.22 316.902 106.613C245.159 107.006 193.169 130.385 144.309 157.508C95.4492 184.631 49.7247 215.496 4 246.361Z" fill="black" stroke="black" stroke-width="7.34124"/>
</svg>
