<svg width="24" height="24" viewBox="0 0 24 24" fill="none" xmlns="http://www.w3.org/2000/svg">
<path d="M1.05005 21V18.2C1.05005 17.65 1.19172 17.1333 1.47505 16.65C1.75838 16.1667 2.15005 15.8 2.65005 15.55C3.50005 15.1167 4.45838 14.75 5.52505 14.45C6.59172 14.15 7.76672 14 9.05005 14C10.3334 14 11.5084 14.15 12.575 14.45C13.6417 14.75 14.6 15.1167 15.45 15.55C15.95 15.8 16.3417 16.1667 16.625 16.65C16.9084 17.1333 17.05 17.65 17.05 18.2V21H1.05005ZM9.05005 13C7.95005 13 7.00838 12.6083 6.22505 11.825C5.44172 11.0417 5.05005 10.1 5.05005 9H4.80005C4.65005 9 4.52938 8.954 4.43805 8.862C4.34672 8.77 4.30072 8.64933 4.30005 8.5C4.30005 8.35 4.34605 8.229 4.43805 8.137C4.53005 8.045 4.65072 7.99933 4.80005 8H5.05005C5.05005 7.25 5.23338 6.575 5.60005 5.975C5.96672 5.375 6.45005 4.9 7.05005 4.55V5.5C7.05005 5.65 7.09605 5.771 7.18805 5.863C7.28005 5.955 7.40072 6.00067 7.55005 6C7.70005 6 7.82105 5.954 7.91305 5.862C8.00505 5.77 8.05072 5.64933 8.05005 5.5V4.15C8.20005 4.1 8.35838 4.06233 8.52505 4.037C8.69171 4.01167 8.86672 3.99933 9.05005 4C9.23338 4 9.40838 4.01267 9.57505 4.038C9.74172 4.06333 9.90005 4.10067 10.05 4.15V5.5C10.05 5.65 10.096 5.771 10.188 5.863C10.28 5.955 10.4007 6.00067 10.55 6C10.7 6 10.821 5.954 10.913 5.862C11.005 5.77 11.0507 5.64933 11.05 5.5V4.55C11.65 4.9 12.1334 5.375 12.5 5.975C12.8667 6.575 13.05 7.25 13.05 8H13.3C13.45 8 13.571 8.046 13.663 8.138C13.755 8.23 13.8007 8.35067 13.8 8.5C13.8 8.65 13.754 8.771 13.662 8.863C13.57 8.955 13.4494 9.00067 13.3 9H13.05C13.05 10.1 12.6584 11.0417 11.875 11.825C11.0917 12.6083 10.15 13 9.05005 13ZM9.05005 11C9.60005 11 10.071 10.804 10.463 10.412C10.855 10.02 11.0507 9.54933 11.05 9H7.05005C7.05005 9.55 7.24605 10.021 7.63805 10.413C8.03005 10.805 8.50072 11.0007 9.05005 11ZM16.55 15L16.4 14.25C16.3 14.2167 16.2044 14.179 16.113 14.137C16.0217 14.095 15.934 14.0327 15.85 13.95L15.15 14.2L14.65 13.3L15.2 12.8V12.2L14.65 11.7L15.15 10.8L15.85 11.05C15.9167 10.9833 16 10.925 16.1 10.875C16.2 10.825 16.3 10.7833 16.4 10.75L16.55 10H17.55L17.7001 10.75C17.8001 10.7833 17.9 10.825 18 10.875C18.1 10.925 18.1834 10.9833 18.25 11.05L18.9501 10.8L19.4501 11.7L18.9 12.2V12.8L19.4501 13.3L18.9501 14.2L18.25 13.95C18.1667 14.0333 18.079 14.096 17.987 14.138C17.8951 14.18 17.7994 14.2173 17.7001 14.25L17.55 15H16.55ZM17.05 13.25C17.25 13.25 17.4251 13.175 17.5751 13.025C17.725 12.875 17.8 12.7 17.8 12.5C17.8 12.3 17.725 12.125 17.5751 11.975C17.4251 11.825 17.25 11.75 17.05 11.75C16.85 11.75 16.675 11.825 16.525 11.975C16.375 12.125 16.3 12.3 16.3 12.5C16.3 12.7 16.375 12.875 16.525 13.025C16.675 13.175 16.85 13.25 17.05 13.25ZM18.85 10L18.65 8.95C18.5 8.9 18.3627 8.83733 18.2381 8.762C18.1134 8.68667 18.0007 8.59933 17.9 8.5L16.85 8.85L16.15 7.65L17 6.9C16.9667 6.81667 16.95 6.75 16.95 6.7V6.3C16.95 6.25 16.9667 6.18333 17 6.1L16.15 5.35L16.85 4.15L17.9 4.5C18 4.4 18.1127 4.31233 18.2381 4.237C18.3634 4.16167 18.5007 4.09933 18.65 4.05L18.85 3H20.25L20.4501 4.05C20.6 4.1 20.7377 4.16267 20.8631 4.238C20.9884 4.31333 21.1007 4.40067 21.2001 4.5L22.25 4.15L22.9501 5.35L22.1 6.1C22.1334 6.18333 22.15 6.25 22.15 6.3V6.7C22.15 6.75 22.1334 6.81667 22.1 6.9L22.9501 7.65L22.25 8.85L21.2001 8.5C21.1 8.6 20.9877 8.68767 20.8631 8.763C20.7384 8.83833 20.6007 8.90067 20.4501 8.95L20.25 10H18.85ZM19.55 7.75C19.9 7.75 20.196 7.629 20.438 7.387C20.68 7.145 20.8007 6.84933 20.8 6.5C20.8 6.15 20.6791 5.854 20.437 5.612C20.195 5.37 19.8994 5.24933 19.55 5.25C19.2 5.25 18.9041 5.371 18.6621 5.613C18.42 5.855 18.2994 6.15067 18.3 6.5C18.3 6.85 18.421 7.146 18.663 7.388C18.9051 7.63 19.2007 7.75067 19.55 7.75Z" fill="black"/>
</svg>
