<svg width="9" height="15" viewBox="0 0 9 15" fill="none" xmlns="http://www.w3.org/2000/svg">
<path fill-rule="evenodd" clip-rule="evenodd" d="M8.23539 6.11539C8.51629 6.39664 8.67407 6.77789 8.67407 7.17539C8.67407 7.57289 8.51629 7.95414 8.23539 8.23539L2.57939 13.8934C2.298 14.1747 1.9164 14.3326 1.51854 14.3325C1.32154 14.3325 1.12648 14.2936 0.944491 14.2182C0.762506 14.1428 0.597159 14.0322 0.457892 13.8929C0.318625 13.7536 0.208166 13.5882 0.13282 13.4061C0.0574741 13.2241 0.0187178 13.029 0.0187645 12.832C0.0188112 12.635 0.0576601 12.44 0.133091 12.258C0.208522 12.076 0.319059 11.9107 0.458392 11.7714L5.05439 7.17539L0.458392 2.57939C0.315063 2.44109 0.200713 2.27563 0.122015 2.09266C0.0433168 1.90969 0.00184536 1.71288 2.09808e-05 1.51371C-0.0018034 1.31454 0.0360565 1.11701 0.111391 0.932629C0.186726 0.748249 0.298026 0.58072 0.438798 0.439816C0.57957 0.298911 0.746994 0.187452 0.931302 0.111944C1.11561 0.0364361 1.31311 -0.0016098 1.51228 2.67029e-05C1.71145 0.00166321 1.9083 0.0429478 2.09134 0.121473C2.27438 0.199999 2.43995 0.314193 2.57839 0.457392L8.23739 6.11539H8.23539Z" fill="black"/>
</svg>
