<svg width="22" height="22" viewBox="0 0 22 22" fill="none" xmlns="http://www.w3.org/2000/svg">
<path d="M6.0009 12.9996C5.56439 13.0003 5.13327 13.0962 4.73765 13.2806C4.34202 13.4651 3.99141 13.7337 3.7103 14.0676C3.42918 14.4016 3.22433 14.7928 3.11003 15.2141C2.99574 15.6354 2.97476 16.0766 3.04855 16.5068C3.12235 16.937 3.28914 17.346 3.5373 17.7051C3.78545 18.0642 4.10899 18.3649 4.48532 18.586C4.86166 18.8072 5.28172 18.9436 5.71621 18.9857C6.15069 19.0277 6.58912 18.9745 7.0009 18.8296" stroke="black" stroke-width="1.5" stroke-linecap="round" stroke-linejoin="round"/>
<path d="M3.26489 14.6046C2.66645 14.3165 2.14918 13.8839 1.75974 13.3459C1.37031 12.8078 1.12098 12.1813 1.03425 11.5228C0.947522 10.8643 1.02613 10.1946 1.26298 9.5741C1.49982 8.95359 1.88746 8.40182 2.39089 7.96859M2.42089 7.88759C2.09293 7.39684 1.94919 6.80588 2.01511 6.21932C2.08103 5.63277 2.35236 5.08845 2.78107 4.68274C3.20977 4.27702 3.7682 4.03608 4.3575 4.00256C4.94679 3.96904 5.52894 4.14511 6.00089 4.49959M6.23889 4.56459C6.07936 4.22564 5.99805 3.85516 6.00097 3.48056C6.00388 3.10595 6.09094 2.73678 6.25572 2.40035C6.4205 2.06392 6.65879 1.76882 6.95296 1.53686C7.24713 1.30491 7.58967 1.14203 7.95526 1.06027C8.32084 0.978508 8.70013 0.979952 9.06509 1.0645C9.43004 1.14904 9.77133 1.31452 10.0637 1.54871C10.3561 1.7829 10.5922 2.0798 10.7544 2.41748C10.9166 2.75516 11.0008 3.12497 11.0009 3.49959M11.0009 3.49959V18.9996M11.0009 3.49959C11.001 3.12497 11.0852 2.75516 11.2474 2.41748C11.4096 2.0798 11.6457 1.7829 11.9381 1.54871C12.2304 1.31452 12.5717 1.14904 12.9367 1.0645C13.3016 0.979952 13.6809 0.978508 14.0465 1.06027C14.4121 1.14203 14.7547 1.30491 15.0488 1.53686C15.343 1.76882 15.5813 2.06392 15.7461 2.40035C15.9108 2.73678 15.9979 3.10595 16.0008 3.48056C16.0037 3.85516 15.9224 4.22564 15.7629 4.56459M11.0009 18.9996C11.0009 19.53 10.7902 20.0387 10.4151 20.4138C10.04 20.7889 9.53132 20.9996 9.00089 20.9996C8.47046 20.9996 7.96175 20.7889 7.58668 20.4138C7.2116 20.0387 7.00089 19.53 7.00089 18.9996M11.0009 18.9996C11.0009 19.53 11.2116 20.0387 11.5867 20.4138C11.9617 20.7889 12.4705 20.9996 13.0009 20.9996M11.0009 5.99959C11.0009 6.79524 11.317 7.5583 11.8796 8.12091C12.4422 8.68352 13.2052 8.99959 14.0009 8.99959M19.6109 7.96859C20.0475 8.34365 20.3978 8.80874 20.6377 9.33192C20.8776 9.85511 21.0015 10.424 21.0009 10.9996C21.0009 11.7026 20.8199 12.3636 20.5009 12.9376M19.5809 7.88759C19.9088 7.39684 20.0526 6.80588 19.9867 6.21932C19.9207 5.63277 19.6494 5.08845 19.2207 4.68274C18.792 4.27702 18.2336 4.03608 17.6443 4.00256C17.055 3.96904 16.4728 4.14511 16.0009 4.49959M19.5009 19.4996L21.0009 20.9996M15.0009 17.4996C15.0009 18.1626 15.2643 18.7985 15.7331 19.2674C16.202 19.7362 16.8378 19.9996 17.5009 19.9996C18.1639 19.9996 18.7998 19.7362 19.2687 19.2674C19.7375 18.7985 20.0009 18.1626 20.0009 17.4996C20.0009 16.8366 19.7375 16.2007 19.2687 15.7318C18.7998 15.263 18.1639 14.9996 17.5009 14.9996C16.8378 14.9996 16.202 15.263 15.7331 15.7318C15.2643 16.2007 15.0009 16.8366 15.0009 17.4996Z" stroke="black" stroke-width="1.5" stroke-linecap="round" stroke-linejoin="round"/>
</svg>
