<svg width="25" height="25" viewBox="0 0 25 25" fill="none" xmlns="http://www.w3.org/2000/svg">
<path d="M1.12868 14.1135C1.04912 13.5818 1.00613 13.0453 1 12.5078C1.00142 9.45616 2.21637 6.52993 4.37787 4.37212C6.53937 2.2143 9.47058 1.00142 12.5274 1C15.5768 1.0184 18.4947 2.2417 20.643 4.40231C22.7912 6.56292 23.9948 9.48495 23.9905 12.5292C23.9905 12.7861 24.0119 13.0698 23.9905 13.2946C23.969 13.5194 23.9315 13.8031 23.9154 13.9636C23.8993 14.1242 23.8564 14.2794 23.8564 14.44C23.8028 14.7505 23.7438 15.0074 23.6688 15.2857C23.6527 15.3713 23.6098 15.457 23.6098 15.5426C23.5294 15.837 23.4382 16.1207 23.331 16.4044C23.309 16.4844 23.2822 16.5631 23.2506 16.6399C23.122 16.9854 22.9734 17.3232 22.8056 17.6515C22.6554 17.994 22.4678 18.3205 22.2694 18.6417C21.0104 20.6319 19.1699 22.1884 16.9964 23.1009C14.8229 24.0134 12.4212 24.238 10.1158 23.7442C7.81038 23.2504 5.71235 22.062 4.10514 20.3397C2.49792 18.6174 1.45898 16.4442 1.12868 14.1135ZM1.12868 14.1135C1.78826 13.1057 2.60871 12.2125 3.55748 11.4694C4.97993 10.3535 6.73465 9.7432 8.54375 9.7352C10.3399 9.76732 12.0556 10.4792 13.6694 11.2821C13.8624 11.3731 14.0555 11.4801 14.2485 11.5764C14.496 11.1808 14.8215 10.8396 15.2052 10.5735C15.5889 10.3073 16.0228 10.1218 16.4805 10.0282C16.9382 9.93455 17.4102 9.9348 17.8678 10.0289C18.3255 10.123 18.7592 10.3089 19.1426 10.5755C19.526 10.8421 19.8511 11.1836 20.0982 11.5795C20.3454 11.9753 20.5093 12.4172 20.5801 12.8782C20.6509 13.3393 20.6271 13.8099 20.5101 14.2615C20.3931 14.713 20.1854 15.1362 19.8996 15.5051C20.8182 16.4251 21.6376 17.4387 22.3445 18.5293M14.2485 11.5711C15.8817 12.4225 17.434 13.4204 18.8862 14.5524C19.0632 14.7023 19.728 15.3339 19.8996 15.4837" stroke="black" stroke-linecap="round" stroke-linejoin="round"/>
</svg>
